<mxfile host="app.diagrams.net" modified="2024-08-08T03:49:12.556Z" agent="Mozilla/5.0 (Windows NT 10.0; Win64; x64) AppleWebKit/537.36 (KHTML, like Gecko) Chrome/127.0.0.0 Safari/537.36" etag="q_dfZB363pGGacYi654Z" version="24.5.3" type="device">
  <diagram name="페이지-1" id="EXH33RECPfJxR1_QK61h">
    <mxGraphModel dx="1050" dy="570" grid="1" gridSize="10" guides="1" tooltips="1" connect="1" arrows="1" fold="1" page="1" pageScale="1" pageWidth="827" pageHeight="1169" math="0" shadow="0">
      <root>
        <mxCell id="0" />
        <mxCell id="1" parent="0" />
        <mxCell id="1GOSfQdHCJdYXFayeqEW-1" value="&lt;h1&gt;&lt;br&gt;&lt;/h1&gt;" style="rounded=1;whiteSpace=wrap;html=1;arcSize=8;" vertex="1" parent="1">
          <mxGeometry x="120" y="170" width="490" height="670" as="geometry" />
        </mxCell>
        <mxCell id="1GOSfQdHCJdYXFayeqEW-2" value="chat.html" style="whiteSpace=wrap;html=1;aspect=fixed;" vertex="1" parent="1">
          <mxGeometry x="10" y="190" width="80" height="80" as="geometry" />
        </mxCell>
        <mxCell id="1GOSfQdHCJdYXFayeqEW-3" value="" style="curved=1;endArrow=classic;html=1;rounded=0;entryX=1;entryY=0.5;entryDx=0;entryDy=0;" edge="1" parent="1" source="1GOSfQdHCJdYXFayeqEW-4" target="1GOSfQdHCJdYXFayeqEW-2">
          <mxGeometry width="50" height="50" relative="1" as="geometry">
            <mxPoint x="330" y="320" as="sourcePoint" />
            <mxPoint x="380" y="270" as="targetPoint" />
            <Array as="points">
              <mxPoint x="120" y="250" />
            </Array>
          </mxGeometry>
        </mxCell>
        <mxCell id="1GOSfQdHCJdYXFayeqEW-4" value="/chat-app" style="text;html=1;align=center;verticalAlign=middle;whiteSpace=wrap;rounded=0;fontStyle=1;fontSize=14;" vertex="1" parent="1">
          <mxGeometry x="90" y="190" width="80" height="30" as="geometry" />
        </mxCell>
        <mxCell id="1GOSfQdHCJdYXFayeqEW-5" value="/chat-api" style="text;html=1;align=center;verticalAlign=middle;whiteSpace=wrap;rounded=0;fontStyle=1;fontSize=14;" vertex="1" parent="1">
          <mxGeometry x="100" y="585" width="60" height="30" as="geometry" />
        </mxCell>
        <mxCell id="1GOSfQdHCJdYXFayeqEW-8" value="&lt;h1&gt;Chatbot&lt;/h1&gt;" style="rounded=1;whiteSpace=wrap;html=1;" vertex="1" parent="1">
          <mxGeometry x="170" y="300" width="110" height="265" as="geometry" />
        </mxCell>
        <mxCell id="1GOSfQdHCJdYXFayeqEW-20" value="&lt;h2&gt;Multimodal&lt;br&gt;(module)&lt;/h2&gt;" style="rounded=1;whiteSpace=wrap;html=1;" vertex="1" parent="1">
          <mxGeometry x="170" y="570" width="420" height="240" as="geometry" />
        </mxCell>
        <mxCell id="1GOSfQdHCJdYXFayeqEW-22" value="ask_gpt&lt;br&gt;_vision" style="ellipse;shape=cloud;whiteSpace=wrap;html=1;fillColor=#ffe6cc;strokeColor=#d79b00;" vertex="1" parent="1">
          <mxGeometry x="180" y="760" width="115" height="80" as="geometry" />
        </mxCell>
        <mxCell id="1GOSfQdHCJdYXFayeqEW-23" value="is_drawing&lt;br&gt;_request" style="ellipse;shape=cloud;whiteSpace=wrap;html=1;" vertex="1" parent="1">
          <mxGeometry x="295" y="720" width="120" height="80" as="geometry" />
        </mxCell>
        <mxCell id="1GOSfQdHCJdYXFayeqEW-24" value="create_image" style="ellipse;shape=cloud;whiteSpace=wrap;html=1;" vertex="1" parent="1">
          <mxGeometry x="420" y="690" width="120" height="80" as="geometry" />
        </mxCell>
        <mxCell id="1GOSfQdHCJdYXFayeqEW-25" value="generate&lt;br&gt;_speech" style="ellipse;shape=cloud;whiteSpace=wrap;html=1;fillColor=#ffe6cc;strokeColor=#d79b00;" vertex="1" parent="1">
          <mxGeometry x="110" y="660" width="120" height="80" as="geometry" />
        </mxCell>
        <mxCell id="1GOSfQdHCJdYXFayeqEW-28" value="send_request" style="ellipse;shape=cloud;whiteSpace=wrap;html=1;labelBackgroundColor=none;fillColor=#ffe6cc;strokeColor=#d79b00;" vertex="1" parent="1">
          <mxGeometry x="185" y="325" width="120" height="80" as="geometry" />
        </mxCell>
        <mxCell id="1GOSfQdHCJdYXFayeqEW-33" value="image?" style="rhombus;whiteSpace=wrap;html=1;" vertex="1" parent="1">
          <mxGeometry x="215" y="630" width="80" height="80" as="geometry" />
        </mxCell>
        <mxCell id="1GOSfQdHCJdYXFayeqEW-34" value="" style="endArrow=classic;html=1;rounded=0;exitX=0.5;exitY=1;exitDx=0;exitDy=0;entryX=0.625;entryY=0.2;entryDx=0;entryDy=0;entryPerimeter=0;" edge="1" parent="1" source="1GOSfQdHCJdYXFayeqEW-33" target="1GOSfQdHCJdYXFayeqEW-22">
          <mxGeometry width="50" height="50" relative="1" as="geometry">
            <mxPoint x="273" y="570" as="sourcePoint" />
            <mxPoint x="255" y="736" as="targetPoint" />
          </mxGeometry>
        </mxCell>
        <mxCell id="1GOSfQdHCJdYXFayeqEW-81" value="yes" style="edgeLabel;html=1;align=center;verticalAlign=middle;resizable=0;points=[];" vertex="1" connectable="0" parent="1GOSfQdHCJdYXFayeqEW-34">
          <mxGeometry x="-0.22" y="-3" relative="1" as="geometry">
            <mxPoint as="offset" />
          </mxGeometry>
        </mxCell>
        <mxCell id="1GOSfQdHCJdYXFayeqEW-35" value="" style="endArrow=classic;html=1;rounded=0;entryX=0.25;entryY=0.25;entryDx=0;entryDy=0;entryPerimeter=0;exitX=1;exitY=0.5;exitDx=0;exitDy=0;" edge="1" parent="1" source="1GOSfQdHCJdYXFayeqEW-33" target="1GOSfQdHCJdYXFayeqEW-23">
          <mxGeometry width="50" height="50" relative="1" as="geometry">
            <mxPoint x="280" y="700" as="sourcePoint" />
            <mxPoint x="277" y="746" as="targetPoint" />
          </mxGeometry>
        </mxCell>
        <mxCell id="1GOSfQdHCJdYXFayeqEW-80" value="No" style="edgeLabel;html=1;align=center;verticalAlign=middle;resizable=0;points=[];" vertex="1" connectable="0" parent="1GOSfQdHCJdYXFayeqEW-35">
          <mxGeometry x="-0.2186" y="-3" relative="1" as="geometry">
            <mxPoint as="offset" />
          </mxGeometry>
        </mxCell>
        <mxCell id="1GOSfQdHCJdYXFayeqEW-38" value="true?" style="rhombus;whiteSpace=wrap;html=1;" vertex="1" parent="1">
          <mxGeometry x="415" y="600" width="80" height="80" as="geometry" />
        </mxCell>
        <mxCell id="1GOSfQdHCJdYXFayeqEW-39" value="" style="endArrow=classic;html=1;rounded=0;exitX=0.825;exitY=0.225;exitDx=0;exitDy=0;exitPerimeter=0;entryX=0.5;entryY=1;entryDx=0;entryDy=0;" edge="1" parent="1" source="1GOSfQdHCJdYXFayeqEW-23" target="1GOSfQdHCJdYXFayeqEW-38">
          <mxGeometry width="50" height="50" relative="1" as="geometry">
            <mxPoint x="400" y="720" as="sourcePoint" />
            <mxPoint x="450" y="670" as="targetPoint" />
          </mxGeometry>
        </mxCell>
        <mxCell id="1GOSfQdHCJdYXFayeqEW-40" value="" style="endArrow=classic;html=1;rounded=0;exitX=1;exitY=0.5;exitDx=0;exitDy=0;entryX=0.625;entryY=0.2;entryDx=0;entryDy=0;entryPerimeter=0;" edge="1" parent="1" source="1GOSfQdHCJdYXFayeqEW-38" target="1GOSfQdHCJdYXFayeqEW-24">
          <mxGeometry width="50" height="50" relative="1" as="geometry">
            <mxPoint x="400" y="720" as="sourcePoint" />
            <mxPoint x="450" y="670" as="targetPoint" />
          </mxGeometry>
        </mxCell>
        <mxCell id="1GOSfQdHCJdYXFayeqEW-78" value="yes" style="edgeLabel;html=1;align=center;verticalAlign=middle;resizable=0;points=[];" vertex="1" connectable="0" parent="1GOSfQdHCJdYXFayeqEW-40">
          <mxGeometry x="-0.4061" y="3" relative="1" as="geometry">
            <mxPoint as="offset" />
          </mxGeometry>
        </mxCell>
        <mxCell id="1GOSfQdHCJdYXFayeqEW-42" value="" style="curved=1;endArrow=classic;html=1;rounded=0;exitX=0;exitY=0.5;exitDx=0;exitDy=0;" edge="1" parent="1" source="1GOSfQdHCJdYXFayeqEW-38">
          <mxGeometry width="50" height="50" relative="1" as="geometry">
            <mxPoint x="400" y="720" as="sourcePoint" />
            <mxPoint x="170" y="535" as="targetPoint" />
            <Array as="points">
              <mxPoint x="80" y="600" />
            </Array>
          </mxGeometry>
        </mxCell>
        <mxCell id="1GOSfQdHCJdYXFayeqEW-79" value="No" style="edgeLabel;html=1;align=center;verticalAlign=middle;resizable=0;points=[];" vertex="1" connectable="0" parent="1GOSfQdHCJdYXFayeqEW-42">
          <mxGeometry x="-0.7201" y="-1" relative="1" as="geometry">
            <mxPoint as="offset" />
          </mxGeometry>
        </mxCell>
        <mxCell id="1GOSfQdHCJdYXFayeqEW-52" value="" style="curved=1;endArrow=classic;html=1;rounded=0;exitX=0.243;exitY=0.8;exitDx=0;exitDy=0;exitPerimeter=0;entryX=0.875;entryY=0.5;entryDx=0;entryDy=0;entryPerimeter=0;" edge="1" parent="1" source="1GOSfQdHCJdYXFayeqEW-24" target="1GOSfQdHCJdYXFayeqEW-22">
          <mxGeometry width="50" height="50" relative="1" as="geometry">
            <mxPoint x="400" y="620" as="sourcePoint" />
            <mxPoint x="450" y="570" as="targetPoint" />
            <Array as="points">
              <mxPoint x="440" y="780" />
              <mxPoint x="360" y="850" />
            </Array>
          </mxGeometry>
        </mxCell>
        <mxCell id="1GOSfQdHCJdYXFayeqEW-88" value="왜그렸는지 설명" style="edgeLabel;html=1;align=center;verticalAlign=middle;resizable=0;points=[];" vertex="1" connectable="0" parent="1GOSfQdHCJdYXFayeqEW-52">
          <mxGeometry x="-0.2176" relative="1" as="geometry">
            <mxPoint as="offset" />
          </mxGeometry>
        </mxCell>
        <mxCell id="1GOSfQdHCJdYXFayeqEW-60" value="" style="group" vertex="1" connectable="0" parent="1">
          <mxGeometry x="360" y="410" width="470" height="180" as="geometry" />
        </mxCell>
        <mxCell id="1GOSfQdHCJdYXFayeqEW-9" value="&lt;h1&gt;MemoryManager&lt;/h1&gt;" style="rounded=1;whiteSpace=wrap;html=1;" vertex="1" parent="1GOSfQdHCJdYXFayeqEW-60">
          <mxGeometry y="10" width="230" height="140" as="geometry" />
        </mxCell>
        <mxCell id="1GOSfQdHCJdYXFayeqEW-56" value="" style="group" vertex="1" connectable="0" parent="1GOSfQdHCJdYXFayeqEW-60">
          <mxGeometry x="240" y="100" width="230" height="60" as="geometry" />
        </mxCell>
        <mxCell id="1GOSfQdHCJdYXFayeqEW-10" value="&lt;h1&gt;MongoDB&lt;/h1&gt;" style="rounded=1;whiteSpace=wrap;html=1;" vertex="1" parent="1GOSfQdHCJdYXFayeqEW-56">
          <mxGeometry y="-2" width="130" height="60" as="geometry" />
        </mxCell>
        <mxCell id="1GOSfQdHCJdYXFayeqEW-13" value="대화" style="rounded=1;whiteSpace=wrap;html=1;" vertex="1" parent="1GOSfQdHCJdYXFayeqEW-56">
          <mxGeometry x="140" width="70" height="25" as="geometry" />
        </mxCell>
        <mxCell id="1GOSfQdHCJdYXFayeqEW-14" value="기억 요약" style="rounded=1;whiteSpace=wrap;html=1;" vertex="1" parent="1GOSfQdHCJdYXFayeqEW-56">
          <mxGeometry x="140" y="30" width="70" height="25" as="geometry" />
        </mxCell>
        <mxCell id="1GOSfQdHCJdYXFayeqEW-57" value="" style="group" vertex="1" connectable="0" parent="1GOSfQdHCJdYXFayeqEW-60">
          <mxGeometry x="240" width="230" height="100" as="geometry" />
        </mxCell>
        <mxCell id="1GOSfQdHCJdYXFayeqEW-15" value="기억 요약" style="rounded=1;whiteSpace=wrap;html=1;" vertex="1" parent="1GOSfQdHCJdYXFayeqEW-57">
          <mxGeometry x="140" y="10" width="70" height="25" as="geometry" />
        </mxCell>
        <mxCell id="1GOSfQdHCJdYXFayeqEW-70" value="embedding" style="ellipse;shape=cloud;whiteSpace=wrap;html=1;" vertex="1" parent="1GOSfQdHCJdYXFayeqEW-57">
          <mxGeometry x="10" y="35" width="120" height="80" as="geometry" />
        </mxCell>
        <mxCell id="1GOSfQdHCJdYXFayeqEW-11" value="&lt;h1&gt;Pinecone&lt;/h1&gt;" style="rounded=1;whiteSpace=wrap;html=1;" vertex="1" parent="1GOSfQdHCJdYXFayeqEW-57">
          <mxGeometry y="8" width="130" height="50" as="geometry" />
        </mxCell>
        <mxCell id="1GOSfQdHCJdYXFayeqEW-69" value="summarize" style="ellipse;shape=cloud;whiteSpace=wrap;html=1;" vertex="1" parent="1GOSfQdHCJdYXFayeqEW-60">
          <mxGeometry x="23" y="100" width="120" height="80" as="geometry" />
        </mxCell>
        <mxCell id="1GOSfQdHCJdYXFayeqEW-73" value="" style="endArrow=classic;html=1;rounded=0;exitX=0.937;exitY=0.56;exitDx=0;exitDy=0;exitPerimeter=0;entryX=0;entryY=0.75;entryDx=0;entryDy=0;" edge="1" parent="1GOSfQdHCJdYXFayeqEW-60" source="1GOSfQdHCJdYXFayeqEW-69" target="1GOSfQdHCJdYXFayeqEW-10">
          <mxGeometry width="50" height="50" relative="1" as="geometry">
            <mxPoint x="121" y="143" as="sourcePoint" />
            <mxPoint x="255" y="95" as="targetPoint" />
          </mxGeometry>
        </mxCell>
        <mxCell id="1GOSfQdHCJdYXFayeqEW-54" value="need_memory" style="ellipse;shape=cloud;whiteSpace=wrap;html=1;" vertex="1" parent="1GOSfQdHCJdYXFayeqEW-60">
          <mxGeometry x="110" y="-8" width="120" height="80" as="geometry" />
        </mxCell>
        <mxCell id="1GOSfQdHCJdYXFayeqEW-71" value="" style="endArrow=classic;html=1;rounded=0;entryX=0.16;entryY=0.55;entryDx=0;entryDy=0;entryPerimeter=0;exitX=0.8;exitY=0.8;exitDx=0;exitDy=0;exitPerimeter=0;" edge="1" parent="1GOSfQdHCJdYXFayeqEW-60" source="1GOSfQdHCJdYXFayeqEW-54" target="1GOSfQdHCJdYXFayeqEW-70">
          <mxGeometry width="50" height="50" relative="1" as="geometry">
            <mxPoint x="40" y="130" as="sourcePoint" />
            <mxPoint x="280" y="20" as="targetPoint" />
          </mxGeometry>
        </mxCell>
        <mxCell id="1GOSfQdHCJdYXFayeqEW-72" value="" style="endArrow=classic;html=1;rounded=0;exitX=0.923;exitY=0.41;exitDx=0;exitDy=0;exitPerimeter=0;entryX=0.12;entryY=0.653;entryDx=0;entryDy=0;entryPerimeter=0;" edge="1" parent="1GOSfQdHCJdYXFayeqEW-60" source="1GOSfQdHCJdYXFayeqEW-69" target="1GOSfQdHCJdYXFayeqEW-70">
          <mxGeometry width="50" height="50" relative="1" as="geometry">
            <mxPoint x="40" y="130" as="sourcePoint" />
            <mxPoint x="290" y="40" as="targetPoint" />
          </mxGeometry>
        </mxCell>
        <mxCell id="1GOSfQdHCJdYXFayeqEW-104" value="" style="endArrow=classic;html=1;rounded=0;exitX=0.16;exitY=0.55;exitDx=0;exitDy=0;exitPerimeter=0;entryX=0.875;entryY=0.5;entryDx=0;entryDy=0;entryPerimeter=0;" edge="1" parent="1GOSfQdHCJdYXFayeqEW-60" source="1GOSfQdHCJdYXFayeqEW-54" target="1GOSfQdHCJdYXFayeqEW-103">
          <mxGeometry width="50" height="50" relative="1" as="geometry">
            <mxPoint x="489" y="446" as="sourcePoint" />
            <mxPoint x="435" y="442" as="targetPoint" />
          </mxGeometry>
        </mxCell>
        <mxCell id="1GOSfQdHCJdYXFayeqEW-103" value="" style="rhombus;whiteSpace=wrap;html=1;" vertex="1" parent="1GOSfQdHCJdYXFayeqEW-60">
          <mxGeometry x="77" y="16" width="30" height="32" as="geometry" />
        </mxCell>
        <mxCell id="1GOSfQdHCJdYXFayeqEW-27" value="warn_user" style="ellipse;shape=cloud;whiteSpace=wrap;html=1;fillColor=#ffe6cc;strokeColor=#d79b00;" vertex="1" parent="1">
          <mxGeometry x="690" y="210" width="120" height="80" as="geometry" />
        </mxCell>
        <mxCell id="1GOSfQdHCJdYXFayeqEW-46" value="" style="endArrow=classic;html=1;rounded=0;exitX=1;exitY=0.5;exitDx=0;exitDy=0;entryX=0.55;entryY=0.95;entryDx=0;entryDy=0;entryPerimeter=0;" edge="1" parent="1" source="1GOSfQdHCJdYXFayeqEW-43" target="1GOSfQdHCJdYXFayeqEW-27">
          <mxGeometry width="50" height="50" relative="1" as="geometry">
            <mxPoint x="450" y="490" as="sourcePoint" />
            <mxPoint x="500" y="440" as="targetPoint" />
          </mxGeometry>
        </mxCell>
        <mxCell id="1GOSfQdHCJdYXFayeqEW-86" value="Yes" style="edgeLabel;html=1;align=center;verticalAlign=middle;resizable=0;points=[];" vertex="1" connectable="0" parent="1GOSfQdHCJdYXFayeqEW-46">
          <mxGeometry x="-0.1806" y="1" relative="1" as="geometry">
            <mxPoint as="offset" />
          </mxGeometry>
        </mxCell>
        <mxCell id="1GOSfQdHCJdYXFayeqEW-16" value="&lt;h1&gt;Warning Agent&lt;/h1&gt;" style="rounded=1;whiteSpace=wrap;html=1;" vertex="1" parent="1">
          <mxGeometry x="360" y="300" width="230" height="110" as="geometry" />
        </mxCell>
        <mxCell id="1GOSfQdHCJdYXFayeqEW-26" value="monitor_user" style="ellipse;shape=cloud;whiteSpace=wrap;html=1;" vertex="1" parent="1">
          <mxGeometry x="520" y="280" width="120" height="80" as="geometry" />
        </mxCell>
        <mxCell id="1GOSfQdHCJdYXFayeqEW-43" value="warn?" style="rhombus;whiteSpace=wrap;html=1;" vertex="1" parent="1">
          <mxGeometry x="650" y="280" width="80" height="80" as="geometry" />
        </mxCell>
        <mxCell id="1GOSfQdHCJdYXFayeqEW-44" value="" style="endArrow=classic;html=1;rounded=0;entryX=0;entryY=0.5;entryDx=0;entryDy=0;exitX=0.875;exitY=0.5;exitDx=0;exitDy=0;exitPerimeter=0;" edge="1" parent="1" source="1GOSfQdHCJdYXFayeqEW-26" target="1GOSfQdHCJdYXFayeqEW-43">
          <mxGeometry width="50" height="50" relative="1" as="geometry">
            <mxPoint x="665" y="330" as="sourcePoint" />
            <mxPoint x="715" y="280" as="targetPoint" />
          </mxGeometry>
        </mxCell>
        <mxCell id="1GOSfQdHCJdYXFayeqEW-65" value="" style="endArrow=classic;html=1;rounded=0;exitX=0.5;exitY=1;exitDx=0;exitDy=0;entryX=0.88;entryY=0.25;entryDx=0;entryDy=0;entryPerimeter=0;" edge="1" parent="1" source="1GOSfQdHCJdYXFayeqEW-43" target="1GOSfQdHCJdYXFayeqEW-54">
          <mxGeometry width="50" height="50" relative="1" as="geometry">
            <mxPoint x="400" y="540" as="sourcePoint" />
            <mxPoint x="450" y="490" as="targetPoint" />
          </mxGeometry>
        </mxCell>
        <mxCell id="1GOSfQdHCJdYXFayeqEW-83" value="No" style="edgeLabel;html=1;align=center;verticalAlign=middle;resizable=0;points=[];" vertex="1" connectable="0" parent="1GOSfQdHCJdYXFayeqEW-65">
          <mxGeometry x="-0.1409" y="2" relative="1" as="geometry">
            <mxPoint as="offset" />
          </mxGeometry>
        </mxCell>
        <mxCell id="1GOSfQdHCJdYXFayeqEW-74" value="" style="endArrow=classic;html=1;rounded=0;exitX=0.07;exitY=0.4;exitDx=0;exitDy=0;exitPerimeter=0;entryX=0.96;entryY=0.7;entryDx=0;entryDy=0;entryPerimeter=0;" edge="1" parent="1" source="1GOSfQdHCJdYXFayeqEW-53" target="1GOSfQdHCJdYXFayeqEW-28">
          <mxGeometry width="50" height="50" relative="1" as="geometry">
            <mxPoint x="400" y="540" as="sourcePoint" />
            <mxPoint x="450" y="490" as="targetPoint" />
          </mxGeometry>
        </mxCell>
        <mxCell id="1GOSfQdHCJdYXFayeqEW-45" value="" style="endArrow=classic;html=1;rounded=0;entryX=0.07;entryY=0.4;entryDx=0;entryDy=0;entryPerimeter=0;exitX=0.989;exitY=0.068;exitDx=0;exitDy=0;exitPerimeter=0;" edge="1" parent="1" source="1GOSfQdHCJdYXFayeqEW-8" target="1GOSfQdHCJdYXFayeqEW-26">
          <mxGeometry width="50" height="50" relative="1" as="geometry">
            <mxPoint x="280" y="439" as="sourcePoint" />
            <mxPoint x="450" y="570" as="targetPoint" />
          </mxGeometry>
        </mxCell>
        <mxCell id="1GOSfQdHCJdYXFayeqEW-17" value="(Daemon)&lt;div&gt;save_chat()&lt;/div&gt;&lt;div&gt;save_memory()&lt;br&gt;&lt;div&gt;&lt;br&gt;&lt;/div&gt;&lt;/div&gt;" style="shape=process;whiteSpace=wrap;html=1;backgroundOutline=1;" vertex="1" parent="1">
          <mxGeometry x="250" y="490" width="120" height="70" as="geometry" />
        </mxCell>
        <mxCell id="1GOSfQdHCJdYXFayeqEW-87" value="" style="endArrow=classic;html=1;rounded=0;exitX=0.987;exitY=0.629;exitDx=0;exitDy=0;exitPerimeter=0;entryX=0.07;entryY=0.4;entryDx=0;entryDy=0;entryPerimeter=0;" edge="1" parent="1" source="1GOSfQdHCJdYXFayeqEW-17" target="1GOSfQdHCJdYXFayeqEW-69">
          <mxGeometry width="50" height="50" relative="1" as="geometry">
            <mxPoint x="400" y="540" as="sourcePoint" />
            <mxPoint x="450" y="490" as="targetPoint" />
          </mxGeometry>
        </mxCell>
        <mxCell id="1GOSfQdHCJdYXFayeqEW-90" value="/audio" style="text;html=1;align=center;verticalAlign=middle;whiteSpace=wrap;rounded=0;fontStyle=1;fontSize=14;" vertex="1" parent="1">
          <mxGeometry x="90" y="625" width="60" height="30" as="geometry" />
        </mxCell>
        <mxCell id="1GOSfQdHCJdYXFayeqEW-96" value="" style="endArrow=classic;html=1;rounded=0;entryX=0.25;entryY=0.25;entryDx=0;entryDy=0;entryPerimeter=0;" edge="1" parent="1" source="1GOSfQdHCJdYXFayeqEW-90" target="1GOSfQdHCJdYXFayeqEW-25">
          <mxGeometry width="50" height="50" relative="1" as="geometry">
            <mxPoint x="400" y="540" as="sourcePoint" />
            <mxPoint x="450" y="490" as="targetPoint" />
          </mxGeometry>
        </mxCell>
        <mxCell id="1GOSfQdHCJdYXFayeqEW-100" value="" style="endArrow=classic;html=1;rounded=0;exitX=0.5;exitY=1;exitDx=0;exitDy=0;entryX=0;entryY=0.5;entryDx=0;entryDy=0;" edge="1" parent="1" source="1GOSfQdHCJdYXFayeqEW-5" target="1GOSfQdHCJdYXFayeqEW-33">
          <mxGeometry width="50" height="50" relative="1" as="geometry">
            <mxPoint x="400" y="540" as="sourcePoint" />
            <mxPoint x="450" y="490" as="targetPoint" />
          </mxGeometry>
        </mxCell>
        <mxCell id="1GOSfQdHCJdYXFayeqEW-101" value="&lt;h1&gt;Server&lt;/h1&gt;" style="text;html=1;align=center;verticalAlign=middle;whiteSpace=wrap;rounded=0;" vertex="1" parent="1">
          <mxGeometry x="335" y="220" width="60" height="30" as="geometry" />
        </mxCell>
        <mxCell id="1GOSfQdHCJdYXFayeqEW-53" value="filter" style="ellipse;shape=cloud;whiteSpace=wrap;html=1;" vertex="1" parent="1">
          <mxGeometry x="310" y="402" width="120" height="80" as="geometry" />
        </mxCell>
        <mxCell id="1GOSfQdHCJdYXFayeqEW-68" value="" style="endArrow=classic;html=1;rounded=0;exitX=0.16;exitY=0.55;exitDx=0;exitDy=0;exitPerimeter=0;entryX=0.875;entryY=0.5;entryDx=0;entryDy=0;entryPerimeter=0;" edge="1" parent="1" source="1GOSfQdHCJdYXFayeqEW-103" target="1GOSfQdHCJdYXFayeqEW-53">
          <mxGeometry width="50" height="50" relative="1" as="geometry">
            <mxPoint x="600" y="490" as="sourcePoint" />
            <mxPoint x="450" y="490" as="targetPoint" />
          </mxGeometry>
        </mxCell>
        <mxCell id="1GOSfQdHCJdYXFayeqEW-107" value="Yes" style="edgeLabel;html=1;align=center;verticalAlign=middle;resizable=0;points=[];" vertex="1" connectable="0" parent="1GOSfQdHCJdYXFayeqEW-68">
          <mxGeometry x="-0.1898" y="-1" relative="1" as="geometry">
            <mxPoint as="offset" />
          </mxGeometry>
        </mxCell>
        <mxCell id="1GOSfQdHCJdYXFayeqEW-105" value="" style="endArrow=classic;html=1;rounded=0;exitX=0.5;exitY=0;exitDx=0;exitDy=0;entryX=0.875;entryY=0.5;entryDx=0;entryDy=0;entryPerimeter=0;" edge="1" parent="1" source="1GOSfQdHCJdYXFayeqEW-103" target="1GOSfQdHCJdYXFayeqEW-28">
          <mxGeometry width="50" height="50" relative="1" as="geometry">
            <mxPoint x="400" y="520" as="sourcePoint" />
            <mxPoint x="450" y="470" as="targetPoint" />
            <Array as="points">
              <mxPoint x="440" y="390" />
            </Array>
          </mxGeometry>
        </mxCell>
        <mxCell id="1GOSfQdHCJdYXFayeqEW-106" value="No" style="edgeLabel;html=1;align=center;verticalAlign=middle;resizable=0;points=[];" vertex="1" connectable="0" parent="1GOSfQdHCJdYXFayeqEW-105">
          <mxGeometry x="-0.6508" y="1" relative="1" as="geometry">
            <mxPoint as="offset" />
          </mxGeometry>
        </mxCell>
      </root>
    </mxGraphModel>
  </diagram>
</mxfile>
